<svg id="app-store-icon" xmlns="http://www.w3.org/2000/svg" width="89.404" height="24" viewBox="0 0 89.404 24">
  <rect id="사각형_8844" data-name="사각형 8844" width="89" height="24" transform="translate(0)" fill="none"/>
  <g id="그룹_96270" data-name="그룹 96270" transform="translate(0 0.28)">
    <g id="그룹_96271" data-name="그룹 96271">
      <path id="Fill-2" d="M14.914,74.66a5.008,5.008,0,0,1,2.377-4.194,5.151,5.151,0,0,0-4.031-2.182c-1.693-.179-3.34,1.017-4.2,1.017-.878,0-2.213-.994-3.642-.971A5.356,5.356,0,0,0,.9,71.088c-1.949,3.378-.5,8.349,1.375,11.083.94,1.336,2.027,2.835,3.464,2.78,1.4-.054,1.926-.893,3.611-.893s2.167.893,3.627.862c1.507-.023,2.446-1.344,3.355-2.695a10.955,10.955,0,0,0,1.53-3.122,4.844,4.844,0,0,1-2.951-4.442" transform="translate(0.023 -62.965)" fill="#fff"/>
      <path id="Fill-3" d="M117.684,3.526A4.927,4.927,0,0,0,118.81,0a5,5,0,0,0-3.239,1.678,4.725,4.725,0,0,0-1.157,3.394,4.139,4.139,0,0,0,3.27-1.546" transform="translate(-105.504)" fill="#fff"/>
    </g>
    <path id="Fill-4" d="M8.92,13.592H7.1l-1-3.142H2.622l-.948,3.142H-.1L3.339,2.9H5.467L8.92,13.592ZM5.8,9.133l-.9-2.787c-.094-.29-.275-.956-.536-2.012H4.323c-.109.456-.275,1.129-.507,2.012l-.89,2.787Z" transform="translate(25.461 6.721)" fill="#fff"/>
    <path id="Fill-5" d="M151.427,45.824a4.342,4.342,0,0,1-1.071,3.106,3.121,3.121,0,0,1-2.374,1.013,2.378,2.378,0,0,1-2.2-1.093V52.9h-1.716v-8.3c0-.825-.022-1.665-.065-2.534h1.506l.094,1.223h.029a3.04,3.04,0,0,1,4.872-.3A4.193,4.193,0,0,1,151.427,45.824Zm-1.745.058a3.147,3.147,0,0,0-.507-1.853,1.755,1.755,0,0,0-1.491-.76,1.819,1.819,0,0,0-1.151.42,1.938,1.938,0,0,0-.673,1.1,2.343,2.343,0,0,0-.08.521V46.6a2.072,2.072,0,0,0,.514,1.419,1.71,1.71,0,0,0,1.339.579,1.767,1.767,0,0,0,1.506-.746A3.27,3.27,0,0,0,149.683,45.881Z" transform="translate(-108.208 -29.456)" fill="#fff"/>
    <path id="Fill-6" d="M273.827,45.824a4.342,4.342,0,0,1-1.071,3.106,3.121,3.121,0,0,1-2.374,1.013,2.378,2.378,0,0,1-2.2-1.093V52.9h-1.716v-8.3c0-.825-.022-1.665-.065-2.534h1.506L268,43.283h.029a3.04,3.04,0,0,1,4.872-.3A4.194,4.194,0,0,1,273.827,45.824Zm-1.745.058a3.147,3.147,0,0,0-.507-1.853,1.755,1.755,0,0,0-1.491-.76,1.819,1.819,0,0,0-1.151.42,1.978,1.978,0,0,0-.673,1.1,2.347,2.347,0,0,0-.08.521V46.6a2.073,2.073,0,0,0,.514,1.419,1.71,1.71,0,0,0,1.339.579,1.758,1.758,0,0,0,1.506-.746A3.221,3.221,0,0,0,272.083,45.881Z" transform="translate(-221.748 -29.456)" fill="#fff"/>
    <path id="Fill-7" d="M421.124,8.647a2.863,2.863,0,0,1-.948,2.222,4.209,4.209,0,0,1-2.91.934,5.092,5.092,0,0,1-2.765-.666l.4-1.426a4.809,4.809,0,0,0,2.476.666,2.332,2.332,0,0,0,1.506-.434,1.419,1.419,0,0,0,.543-1.165,1.508,1.508,0,0,0-.442-1.093,4.134,4.134,0,0,0-1.477-.825c-1.889-.7-2.823-1.723-2.823-3.062a2.716,2.716,0,0,1,.992-2.157A3.934,3.934,0,0,1,418.3.8a5.166,5.166,0,0,1,2.425.507l-.434,1.39a4.273,4.273,0,0,0-2.056-.492,2.133,2.133,0,0,0-1.419.442,1.285,1.285,0,0,0-.427.97,1.3,1.3,0,0,0,.492,1.042,5.524,5.524,0,0,0,1.556.825,5.218,5.218,0,0,1,2.027,1.3,2.709,2.709,0,0,1,.659,1.86" transform="translate(-359.127 8.668)" fill="#fff"/>
    <path id="Fill-8" d="M524.291,20.807H522.4v3.743c0,.948.333,1.426,1,1.426a3.176,3.176,0,0,0,.76-.08l.051,1.3a3.973,3.973,0,0,1-1.332.188,2.05,2.05,0,0,1-1.585-.623,3.022,3.022,0,0,1-.572-2.078V20.8H519.6V19.518h1.122V18.107L522.4,17.6v1.918h1.889v1.289" transform="translate(-456.62 -6.915)" fill="#fff"/>
    <path id="Fill-9" d="M605.05,45.945a4.234,4.234,0,0,1-1.014,2.917,3.628,3.628,0,0,1-2.823,1.173,3.474,3.474,0,0,1-2.707-1.122,4.075,4.075,0,0,1-1.006-2.838,4.2,4.2,0,0,1,1.035-2.932,3.613,3.613,0,0,1,2.8-1.144,3.523,3.523,0,0,1,2.729,1.129A4.024,4.024,0,0,1,605.05,45.945Zm-1.774.036a3.455,3.455,0,0,0-.456-1.817,1.777,1.777,0,0,0-3.113,0,3.92,3.92,0,0,0,0,3.67,1.758,1.758,0,0,0,3.1-.014A3.507,3.507,0,0,0,603.277,45.981Z" transform="translate(-528.881 -29.548)" fill="#fff"/>
    <path id="Fill-10" d="M725.833,43.565a3.175,3.175,0,0,0-.543-.043,1.616,1.616,0,0,0-1.4.68,2.583,2.583,0,0,0-.427,1.52v4.047h-1.716V44.484c0-.89-.015-1.7-.051-2.425h1.491l.065,1.477h.051a2.628,2.628,0,0,1,.854-1.223A2.084,2.084,0,0,1,725.4,41.9a3.6,3.6,0,0,1,.427.029l.007,1.636" transform="translate(-644.087 -29.456)" fill="#fff"/>
    <path id="Fill-11" d="M796.755,45.27a3.915,3.915,0,0,1-.065.775h-5.14a2.235,2.235,0,0,0,.745,1.745,2.567,2.567,0,0,0,1.68.536,5.768,5.768,0,0,0,2.078-.362l.268,1.187a6.432,6.432,0,0,1-2.584.478,3.744,3.744,0,0,1-2.816-1.057,3.9,3.9,0,0,1-1.021-2.83,4.423,4.423,0,0,1,.956-2.9,3.28,3.28,0,0,1,2.693-1.238,2.861,2.861,0,0,1,2.519,1.238A4.188,4.188,0,0,1,796.755,45.27Zm-1.636-.442a2.309,2.309,0,0,0-.333-1.317,1.5,1.5,0,0,0-1.361-.717,1.627,1.627,0,0,0-1.361.695,2.574,2.574,0,0,0-.507,1.332Z" transform="translate(-707.351 -29.178)" fill="#fff"/>
    <path id="Fill-12" d="M4.138,9.756h-.9L2.748,8.214H1.039L.569,9.756H-.3L1.387,4.5H2.429ZM2.6,7.562,2.154,6.187c-.043-.138-.13-.471-.268-.992H1.872c-.058.224-.13.55-.253.992L1.184,7.562Z" transform="translate(26.297 -3.957)" fill="#fff"/>
    <path id="Fill-13" d="M72.741,24.7l-1.433,3.793H70.49L69.1,24.7H70l.644,2.005c.109.333.2.652.275.956h.022c.065-.275.159-.594.275-.956l.637-2.005h.883" transform="translate(-38.078 -22.695)" fill="#fff"/>
    <path id="Fill-14" d="M131.453,27.658l-.065-.434h-.022a1.3,1.3,0,0,1-1.108.521A1.1,1.1,0,0,1,129.1,26.63c0-.934.811-1.419,2.215-1.419v-.072c0-.5-.268-.746-.789-.746a1.768,1.768,0,0,0-.992.282l-.174-.55a2.434,2.434,0,0,1,1.3-.326c.992,0,1.491.521,1.491,1.571v1.4a5.046,5.046,0,0,0,.058.9Zm-.116-1.889c-.934,0-1.4.224-1.4.767a.537.537,0,0,0,.579.594.805.805,0,0,0,.825-.775Z" transform="translate(-93.736 -21.861)" fill="#fff"/>
    <path id="Fill-15" d="M190.8,3.206a.5.5,0,1,1,.528-.507A.493.493,0,0,1,190.8,3.206Zm-.405.623h.84V7.615h-.84Z" transform="translate(-150.505 -1.823)" fill="#fff"/>
    <path id="Fill-16" d="M223.9.7h.84V6.223h-.84Z" transform="translate(-181.673 -0.432)" fill="#fff"/>
    <path id="Fill-17" d="M254.753,27.566l-.065-.434h-.022a1.3,1.3,0,0,1-1.108.521,1.1,1.1,0,0,1-1.158-1.115c0-.934.811-1.419,2.215-1.419v-.072c0-.5-.268-.746-.789-.746a1.768,1.768,0,0,0-.992.282l-.174-.557a2.434,2.434,0,0,1,1.3-.326c.992,0,1.491.521,1.491,1.571v1.4a5.98,5.98,0,0,0,.051.9h-.753Zm-.116-1.889c-.934,0-1.4.224-1.4.767a.537.537,0,0,0,.579.594.805.805,0,0,0,.825-.775Z" transform="translate(-208.109 -21.767)" fill="#fff"/>
    <path id="Fill-18" d="M316.476,6.317a1.29,1.29,0,0,1-1.194-.673h-.014l-.051.586H314.5c.022-.3.029-.644.029-1.021V.7h.847V2.995h.014a1.3,1.3,0,0,1,1.209-.63c.912,0,1.549.782,1.549,1.918A1.824,1.824,0,0,1,316.476,6.317ZM316.3,3.024a.967.967,0,0,0-.927,1.006V4.7a.926.926,0,0,0,.912.948c.63,0,1.006-.514,1.006-1.332,0-.767-.391-1.289-.992-1.289Z" transform="translate(-265.714 -0.432)" fill="#fff"/>
    <path id="Fill-19" d="M382.1.7h.84V6.223h-.84Z" transform="translate(-328.42 -0.432)" fill="#fff"/>
    <path id="Fill-20" d="M414.237,25.686h-2.526a1.088,1.088,0,0,0,1.194,1.122,2.848,2.848,0,0,0,1.021-.181l.13.586a3.07,3.07,0,0,1-1.267.232,1.759,1.759,0,0,1-1.889-1.911,1.851,1.851,0,0,1,1.8-2.034,1.6,1.6,0,0,1,1.578,1.8A1.467,1.467,0,0,1,414.237,25.686Zm-.767-.6c0-.586-.3-1-.833-1a1,1,0,0,0-.919,1Z" transform="translate(-355.137 -21.582)" fill="#fff"/>
    <path id="Fill-21" d="M504.124,27.653a1.8,1.8,0,0,1-1.824-1.947,1.845,1.845,0,0,1,1.889-2.005,1.788,1.788,0,0,1,1.824,1.94A1.859,1.859,0,0,1,504.124,27.653Zm.036-3.337c-.608,0-1,.572-1,1.361s.4,1.346.992,1.346.992-.608.992-1.368S504.754,24.315,504.16,24.315Z" transform="translate(-439.92 -21.767)" fill="#fff"/>
    <path id="Fill-22" d="M573.616,27.473h-.84V25.294c0-.673-.26-1.006-.767-1.006a.871.871,0,0,0-.84.927v2.251h-.84v-2.7c0-.333-.007-.695-.029-1.086h.738l.036.586h.022a1.363,1.363,0,0,1,1.2-.666c.8,0,1.318.608,1.318,1.6v2.273" transform="translate(-502.997 -21.675)" fill="#fff"/>
    <path id="Fill-23" d="M662.795,13.278h-.927v1.839c0,.471.167.7.492.7a1.843,1.843,0,0,0,.376-.036l.022.637a1.824,1.824,0,0,1-.652.094c-.666,0-1.057-.369-1.057-1.325V13.278h-.55v-.63h.55v-.695l.825-.253v.941h.927v.637" transform="translate(-586.667 -10.636)" fill="#fff"/>
    <path id="Fill-24" d="M711.687,6.231h-.84V4.066c0-.68-.261-1.021-.767-1.021a.825.825,0,0,0-.84.9v2.28h-.84V.7h.84V2.973h.014a1.273,1.273,0,0,1,1.137-.615c.8,0,1.3.623,1.3,1.614V6.231" transform="translate(-631.1 -0.432)" fill="#fff"/>
    <path id="Fill-25" d="M770.437,25.686h-2.527a1.088,1.088,0,0,0,1.195,1.122,2.847,2.847,0,0,0,1.021-.181l.13.586a3.07,3.07,0,0,1-1.267.232,1.759,1.759,0,0,1-1.889-1.911,1.851,1.851,0,0,1,1.8-2.034,1.6,1.6,0,0,1,1.578,1.8A1.472,1.472,0,0,1,770.437,25.686Zm-.767-.6c0-.586-.3-1-.833-1a.993.993,0,0,0-.919,1Z" transform="translate(-685.551 -21.582)" fill="#fff"/>
  </g>
</svg>
