<svg id="play-store-icon" xmlns="http://www.w3.org/2000/svg" width="104" height="24" viewBox="0 0 104 24">
  <rect id="사각형_8845" data-name="사각형 8845" width="104" height="24" transform="translate(0)" fill="none"/>
  <g id="그룹_96268" data-name="그룹 96268" transform="translate(0 2.808)">
    <g id="그룹_10651" data-name="그룹 10651" transform="translate(23.637 2.249)">
      <path id="패스_16603" data-name="패스 16603" d="M2059.8,430.558a6.344,6.344,0,0,1,6.348-6.258,5.972,5.972,0,0,1,4.288,1.724l-1.206,1.205a4.354,4.354,0,0,0-3.083-1.22,4.549,4.549,0,0,0,0,9.1,4.179,4.179,0,0,0,3.158-1.253,3.574,3.574,0,0,0,.932-2.152h-4.087V430h5.753a5.565,5.565,0,0,1,.093,1.067,5.651,5.651,0,0,1-1.482,4,5.721,5.721,0,0,1-4.365,1.756,6.343,6.343,0,0,1-6.349-6.258Zm16.844-1.8a4.028,4.028,0,1,0,4.045,4.027A3.974,3.974,0,0,0,2076.647,428.757Zm0,6.472a2.449,2.449,0,1,1,2.273-2.443A2.332,2.332,0,0,1,2076.647,435.229Zm8.824-6.472a4.028,4.028,0,1,0,4.044,4.027A3.972,3.972,0,0,0,2085.471,428.757Zm0,6.472a2.449,2.449,0,1,1,2.274-2.443A2.331,2.331,0,0,1,2085.471,435.229ZM2096.3,429v.655h-.06a2.783,2.783,0,0,0-2.12-.9,4.034,4.034,0,0,0,0,8.061,2.745,2.745,0,0,0,2.12-.915h.06v.579c0,1.541-.824,2.366-2.152,2.366a2.232,2.232,0,0,1-2.031-1.433l-1.542.641a3.842,3.842,0,0,0,3.572,2.381c2.074,0,3.83-1.223,3.83-4.2V429Zm-2.029,6.227a2.45,2.45,0,0,1,0-4.884,2.462,2.462,0,0,1,0,4.884Zm4.928-10.5h1.772v11.844H2099.2Zm6.627,10.5a2.046,2.046,0,0,1-1.952-1.22l5.387-2.231-.185-.458a3.745,3.745,0,0,0-3.45-2.564,3.83,3.83,0,0,0-3.8,4.03,3.943,3.943,0,0,0,4,4.028,4,4,0,0,0,3.359-1.786l-1.374-.915A2.3,2.3,0,0,1,2105.826,435.229Zm-.138-4.915a1.562,1.562,0,0,1,1.5.854l-3.6,1.5A2.212,2.212,0,0,1,2105.688,430.314Zm11.347-5.586H2112.8v11.844h1.767v-4.486h2.469a3.684,3.684,0,1,0,0-7.357Zm.046,5.709h-2.514v-4.061h2.514a2.031,2.031,0,1,1,0,4.061Zm6.582,6.135V424.728H2121.9v11.844Zm7.94-.021v-4.54c0-2.1-1.571-3.275-3.6-3.275a3.319,3.319,0,0,0-3.152,1.813l1.569.654a1.677,1.677,0,0,1,1.616-.869,1.7,1.7,0,0,1,1.857,1.525v.122a3.9,3.9,0,0,0-1.844-.458c-1.691,0-3.413.929-3.413,2.666a2.736,2.736,0,0,0,2.942,2.606,2.49,2.49,0,0,0,2.254-1.157h.061v.915h1.708Zm-3.81-1.324c-.579,0-1.386-.29-1.386-1,0-.915,1.007-1.267,1.875-1.267a3.148,3.148,0,0,1,1.616.4A2.147,2.147,0,0,1,2127.792,435.227Zm10.026-6.233-2.027,5.134h-.06l-2.1-5.134h-1.9l3.153,7.177-1.8,3.991h1.844l4.859-11.169Z" transform="translate(-2059.8 -424.3)" fill="#fff" fill-rule="evenodd"/>
    </g>
    <g id="_x34_2.Google_PLay">
      <path id="패스_87628" data-name="패스 87628" d="M60.753,37.956l-3.079-1.779-3.152,3.152,3.152,3.152,3.09-1.784a1.6,1.6,0,0,0-.01-2.742Z" transform="translate(-45.454 -30.227)" fill="#fbbc04"/>
      <path id="패스_87629" data-name="패스 87629" d="M23.7,20.644,15.11,12a1.62,1.62,0,0,0-.48,1.152V28.115a1.621,1.621,0,0,0,.48,1.152Z" transform="translate(-14.63 -11.542)" fill="#2885ff"/>
      <path id="패스_87630" data-name="패스 87630" d="M25.329,19.1l3.152-3.152.005-.005-4.224-2.432L18.694,10.24a1.58,1.58,0,0,0-1.621-.032,2.406,2.406,0,0,0-.331.245Z" transform="translate(-16.262 -10)" fill="#2ecc58"/>
      <path id="패스_87631" data-name="패스 87631" d="M16.742,58.669a2.406,2.406,0,0,0,.331.245,1.656,1.656,0,0,0,.789.213,1.625,1.625,0,0,0,.821-.235l5.578-3.257L28.486,53.2l-.005-.005-3.152-3.152Z" transform="translate(-16.262 -40.945)" fill="#f44a3c"/>
    </g>
  </g>
</svg>
